<mxfile host="app.diagrams.net" modified="2020-11-02T01:14:43.062Z" agent="5.0 (Macintosh; Intel Mac OS X 10_15_5) AppleWebKit/605.1.15 (KHTML, like Gecko) Version/13.1.1 Safari/605.1.15" etag="gKExMg-WLfyFl5lBBINS" version="13.8.8" type="github">
  <diagram id="Kd5f_onzqpVtT_TkVwzq" name="Page-1">
    <mxGraphModel dx="1656" dy="554" grid="1" gridSize="10" guides="1" tooltips="1" connect="1" arrows="1" fold="1" page="1" pageScale="1" pageWidth="827" pageHeight="1169" math="0" shadow="0">
      <root>
        <mxCell id="0" />
        <mxCell id="1" parent="0" />
        <mxCell id="f0LUf4R50EWFo8kcOdoJ-1" value="Home" style="rounded=1;whiteSpace=wrap;html=1;" parent="1" vertex="1">
          <mxGeometry x="281" y="170" width="120" height="60" as="geometry" />
        </mxCell>
        <mxCell id="f0LUf4R50EWFo8kcOdoJ-2" value="About" style="rounded=1;whiteSpace=wrap;html=1;" parent="1" vertex="1">
          <mxGeometry x="30" y="350" width="120" height="60" as="geometry" />
        </mxCell>
        <mxCell id="f0LUf4R50EWFo8kcOdoJ-3" value="Food &amp;amp; Drinks&lt;br&gt;" style="rounded=1;whiteSpace=wrap;html=1;" parent="1" vertex="1">
          <mxGeometry x="200" y="349" width="120" height="60" as="geometry" />
        </mxCell>
        <mxCell id="f0LUf4R50EWFo8kcOdoJ-4" value="Art" style="rounded=1;whiteSpace=wrap;html=1;" parent="1" vertex="1">
          <mxGeometry x="372" y="348" width="120" height="60" as="geometry" />
        </mxCell>
        <mxCell id="f0LUf4R50EWFo8kcOdoJ-5" value="Music" style="rounded=1;whiteSpace=wrap;html=1;" parent="1" vertex="1">
          <mxGeometry x="530" y="348" width="120" height="60" as="geometry" />
        </mxCell>
        <mxCell id="f0LUf4R50EWFo8kcOdoJ-6" value="Calander" style="rounded=1;whiteSpace=wrap;html=1;" parent="1" vertex="1">
          <mxGeometry x="690" y="348" width="120" height="60" as="geometry" />
        </mxCell>
        <mxCell id="f0LUf4R50EWFo8kcOdoJ-7" value="contact" style="rounded=1;whiteSpace=wrap;html=1;" parent="1" vertex="1">
          <mxGeometry x="-120" y="350" width="120" height="60" as="geometry" />
        </mxCell>
        <mxCell id="f0LUf4R50EWFo8kcOdoJ-11" value="" style="shape=partialRectangle;whiteSpace=wrap;html=1;bottom=0;right=0;fillColor=none;" parent="1" vertex="1">
          <mxGeometry x="80" y="293" width="260" height="50" as="geometry" />
        </mxCell>
        <mxCell id="f0LUf4R50EWFo8kcOdoJ-12" value="" style="shape=partialRectangle;whiteSpace=wrap;html=1;bottom=0;right=0;fillColor=none;" parent="1" vertex="1">
          <mxGeometry x="-60" y="292.5" width="170" height="60" as="geometry" />
        </mxCell>
        <mxCell id="f0LUf4R50EWFo8kcOdoJ-15" value="" style="shape=partialRectangle;whiteSpace=wrap;html=1;top=0;left=0;fillColor=none;rotation=-180;" parent="1" vertex="1">
          <mxGeometry x="440" y="287" width="160" height="60" as="geometry" />
        </mxCell>
        <mxCell id="f0LUf4R50EWFo8kcOdoJ-16" value="" style="shape=partialRectangle;whiteSpace=wrap;html=1;bottom=0;right=0;fillColor=none;" parent="1" vertex="1">
          <mxGeometry x="600" y="285" width="160" height="60" as="geometry" />
        </mxCell>
        <mxCell id="f0LUf4R50EWFo8kcOdoJ-17" value="" style="shape=partialRectangle;whiteSpace=wrap;html=1;right=0;top=0;bottom=0;fillColor=none;routingCenterX=-0.5;" parent="1" vertex="1">
          <mxGeometry x="760" y="285" width="120" height="60" as="geometry" />
        </mxCell>
        <mxCell id="f0LUf4R50EWFo8kcOdoJ-21" value="" style="shape=partialRectangle;whiteSpace=wrap;html=1;bottom=0;right=0;fillColor=none;" parent="1" vertex="1">
          <mxGeometry x="252" y="293" width="188" height="60" as="geometry" />
        </mxCell>
        <mxCell id="f0LUf4R50EWFo8kcOdoJ-22" value="" style="shape=partialRectangle;whiteSpace=wrap;html=1;right=0;top=0;bottom=0;fillColor=none;routingCenterX=-0.5;" parent="1" vertex="1">
          <mxGeometry x="340" y="233" width="130" height="60" as="geometry" />
        </mxCell>
      </root>
    </mxGraphModel>
  </diagram>
</mxfile>
